<svg width="114" height="71" viewBox="0 0 114 71" fill="none" xmlns="http://www.w3.org/2000/svg">
<path d="M3.885 36.45C3.885 31.06 4.55 26.3 5.88 22.17C7.28 18.04 9.1 14.61 11.34 11.88C13.58 9.08 16.1 6.98 18.9 5.58C21.77 4.11 24.675 3.375 27.615 3.375C30.555 3.375 33.46 4.11 36.33 5.58C39.2 6.98 41.72 9.08 43.89 11.88C46.13 14.61 47.915 18.04 49.245 22.17C50.645 26.3 51.345 31.06 51.345 36.45C51.345 41.91 50.645 46.74 49.245 50.94C47.915 55.07 46.13 58.57 43.89 61.44C41.72 64.24 39.2 66.375 36.33 67.845C33.46 69.315 30.555 70.05 27.615 70.05C24.675 70.05 21.77 69.315 18.9 67.845C16.1 66.375 13.58 64.24 11.34 61.44C9.1 58.57 7.28 55.07 5.88 50.94C4.55 46.74 3.885 41.91 3.885 36.45ZM44.73 39.18C44.73 34.14 44.17 29.695 43.05 25.845C41.93 21.925 40.46 18.67 38.64 16.08C36.89 13.42 34.86 11.425 32.55 10.095C30.31 8.695 28 7.995 25.62 7.995C23.24 7.995 21.07 8.695 19.11 10.095C17.22 11.425 15.61 13.21 14.28 15.45C12.95 17.69 11.9 20.28 11.13 23.22C10.43 26.16 10.08 29.24 10.08 32.46C10.08 36.31 10.535 40.23 11.445 44.22C12.355 48.14 13.65 51.71 15.33 54.93C17.01 58.08 19.005 60.67 21.315 62.7C23.695 64.73 26.285 65.745 29.085 65.745C31.115 65.745 33.075 65.185 34.965 64.065C36.855 62.875 38.5 61.16 39.9 58.92C41.37 56.68 42.525 53.915 43.365 50.625C44.275 47.335 44.73 43.52 44.73 39.18ZM66.9063 69V67.95C68.5863 67.95 69.6363 67.46 70.0563 66.48C70.5463 65.43 70.7913 64.205 70.7913 62.805V12.51C70.7913 11.81 70.4413 11.46 69.7413 11.46C69.4613 11.46 69.0763 11.565 68.5863 11.775L56.6163 15.555V11.775L81.0813 3.27V6.105C79.9613 6.595 79.0513 7.365 78.3513 8.415C77.7213 9.465 77.4763 10.69 77.6163 12.09V62.385C77.6163 63.855 77.8613 65.15 78.3513 66.27C78.8413 67.39 79.9613 67.95 81.7113 67.95V69H66.9063Z" fill="#62A8DE"/>
<circle cx="83.5" cy="47.5" r="14" fill="#D9D9D9"/>
<circle cx="83.5" cy="47.5" r="14" fill="url(#paint0_linear_146_38)"/>
<circle cx="83.5" cy="47.5" r="14" fill="url(#paint1_radial_146_38)" fill-opacity="0.3"/>
<circle cx="83.5" cy="47.5" r="14" stroke="#FAFAFA" stroke-width="3"/>
<path d="M86.3332 45.5L81.7498 50.0833L79.6665 48" stroke="#6C623C" stroke-width="2" stroke-linecap="square" stroke-linejoin="round"/>
<defs>
<linearGradient id="paint0_linear_146_38" x1="89" y1="35" x2="68.9711" y2="44.0768" gradientUnits="userSpaceOnUse">
<stop stop-color="#FFF2AF"/>
<stop offset="1" stop-color="#EFD4A0"/>
</linearGradient>
<radialGradient id="paint1_radial_146_38" cx="0" cy="0" r="1" gradientUnits="userSpaceOnUse" gradientTransform="translate(84.2789 40.25) rotate(91.3177) scale(32.2585 13.4896)">
<stop stop-color="white"/>
<stop offset="1" stop-color="white" stop-opacity="0"/>
</radialGradient>
</defs>
</svg>
