<svg width="114" height="71" viewBox="0 0 114 71" fill="none" xmlns="http://www.w3.org/2000/svg">
<path d="M3.885 36.45C3.885 31.06 4.55 26.3 5.88 22.17C7.28 18.04 9.1 14.61 11.34 11.88C13.58 9.08 16.1 6.98 18.9 5.58C21.77 4.11 24.675 3.375 27.615 3.375C30.555 3.375 33.46 4.11 36.33 5.58C39.2 6.98 41.72 9.08 43.89 11.88C46.13 14.61 47.915 18.04 49.245 22.17C50.645 26.3 51.345 31.06 51.345 36.45C51.345 41.91 50.645 46.74 49.245 50.94C47.915 55.07 46.13 58.57 43.89 61.44C41.72 64.24 39.2 66.375 36.33 67.845C33.46 69.315 30.555 70.05 27.615 70.05C24.675 70.05 21.77 69.315 18.9 67.845C16.1 66.375 13.58 64.24 11.34 61.44C9.1 58.57 7.28 55.07 5.88 50.94C4.55 46.74 3.885 41.91 3.885 36.45ZM44.73 39.18C44.73 34.14 44.17 29.695 43.05 25.845C41.93 21.925 40.46 18.67 38.64 16.08C36.89 13.42 34.86 11.425 32.55 10.095C30.31 8.695 28 7.995 25.62 7.995C23.24 7.995 21.07 8.695 19.11 10.095C17.22 11.425 15.61 13.21 14.28 15.45C12.95 17.69 11.9 20.28 11.13 23.22C10.43 26.16 10.08 29.24 10.08 32.46C10.08 36.31 10.535 40.23 11.445 44.22C12.355 48.14 13.65 51.71 15.33 54.93C17.01 58.08 19.005 60.67 21.315 62.7C23.695 64.73 26.285 65.745 29.085 65.745C31.115 65.745 33.075 65.185 34.965 64.065C36.855 62.875 38.5 61.16 39.9 58.92C41.37 56.68 42.525 53.915 43.365 50.625C44.275 47.335 44.73 43.52 44.73 39.18ZM58.4013 10.305H59.3463C59.6963 10.305 60.1163 10.13 60.6063 9.78C61.1663 9.43 61.7613 9.045 62.3913 8.62499C63.0913 8.135 63.8963 7.575 64.8063 6.945C65.7863 6.315 66.8713 5.755 68.0613 5.26499C69.3213 4.705 70.7213 4.25 72.2613 3.9C73.8013 3.55 75.5163 3.375 77.4063 3.375C79.7863 3.375 82.0963 3.725 84.3363 4.425C86.5763 5.055 88.5713 6.07 90.3213 7.47C92.0713 8.8 93.4713 10.515 94.5213 12.615C95.5713 14.715 96.0963 17.235 96.0963 20.175C96.0963 22.625 95.6763 24.865 94.8363 26.895C93.9963 28.925 92.8413 30.815 91.3713 32.565C89.9713 34.315 88.3613 35.995 86.5413 37.605C84.7913 39.145 82.9713 40.685 81.0813 42.225C79.2613 43.695 77.4763 45.2 75.7263 46.74C74.0463 48.28 72.5063 49.89 71.1063 51.57C69.7763 53.25 68.6563 55.07 67.7463 57.03C66.8363 58.92 66.3113 60.95 66.1713 63.12H88.0113C90.6713 63.12 92.7713 62.665 94.3113 61.755C95.8513 60.775 96.6563 59.2 96.7263 57.03H97.6713V69H58.8213C58.8213 65.85 59.3463 62.945 60.3963 60.285C61.4463 57.555 62.8113 55.07 64.4913 52.83C66.1713 50.52 68.0263 48.385 70.0563 46.425C72.1563 44.465 74.2213 42.575 76.2513 40.755C77.9313 39.285 79.5413 37.815 81.0813 36.345C82.6913 34.875 84.0913 33.405 85.2813 31.935C86.5413 30.395 87.5213 28.82 88.2213 27.21C88.9913 25.53 89.3763 23.78 89.3763 21.96C89.3763 19.65 88.9563 17.585 88.1163 15.765C87.3463 13.945 86.2963 12.405 84.9663 11.145C83.7063 9.885 82.2363 8.94 80.5563 8.31C78.8763 7.61 77.1963 7.26 75.5163 7.26C71.9463 7.26 68.7963 8.345 66.0663 10.515C63.3363 12.615 61.1313 15.345 59.4513 18.705H58.4013V10.305Z" fill="#62A8DE"/>
<circle cx="90.5" cy="47.5" r="14" fill="#D9D9D9"/>
<circle cx="90.5" cy="47.5" r="14" fill="url(#paint0_linear_146_44)"/>
<circle cx="90.5" cy="47.5" r="14" fill="url(#paint1_radial_146_44)" fill-opacity="0.3"/>
<circle cx="90.5" cy="47.5" r="14" stroke="#FAFAFA" stroke-width="3"/>
<path d="M93.3332 45.5L88.7498 50.0833L86.6665 48" stroke="#6C623C" stroke-width="2" stroke-linecap="square" stroke-linejoin="round"/>
<defs>
<linearGradient id="paint0_linear_146_44" x1="96" y1="35" x2="75.9711" y2="44.0768" gradientUnits="userSpaceOnUse">
<stop stop-color="#FFF2AF"/>
<stop offset="1" stop-color="#EFD4A0"/>
</linearGradient>
<radialGradient id="paint1_radial_146_44" cx="0" cy="0" r="1" gradientUnits="userSpaceOnUse" gradientTransform="translate(91.2789 40.25) rotate(91.3177) scale(32.2585 13.4896)">
<stop stop-color="white"/>
<stop offset="1" stop-color="white" stop-opacity="0"/>
</radialGradient>
</defs>
</svg>
