<svg width="114" height="71" viewBox="0 0 114 71" fill="none" xmlns="http://www.w3.org/2000/svg">
<path d="M3.885 36.45C3.885 31.06 4.55 26.3 5.88 22.17C7.28 18.04 9.1 14.61 11.34 11.88C13.58 9.08 16.1 6.98 18.9 5.58C21.77 4.11 24.675 3.375 27.615 3.375C30.555 3.375 33.46 4.11 36.33 5.58C39.2 6.98 41.72 9.08 43.89 11.88C46.13 14.61 47.915 18.04 49.245 22.17C50.645 26.3 51.345 31.06 51.345 36.45C51.345 41.91 50.645 46.74 49.245 50.94C47.915 55.07 46.13 58.57 43.89 61.44C41.72 64.24 39.2 66.375 36.33 67.845C33.46 69.315 30.555 70.05 27.615 70.05C24.675 70.05 21.77 69.315 18.9 67.845C16.1 66.375 13.58 64.24 11.34 61.44C9.1 58.57 7.28 55.07 5.88 50.94C4.55 46.74 3.885 41.91 3.885 36.45ZM44.73 39.18C44.73 34.14 44.17 29.695 43.05 25.845C41.93 21.925 40.46 18.67 38.64 16.08C36.89 13.42 34.86 11.425 32.55 10.095C30.31 8.695 28 7.995 25.62 7.995C23.24 7.995 21.07 8.695 19.11 10.095C17.22 11.425 15.61 13.21 14.28 15.45C12.95 17.69 11.9 20.28 11.13 23.22C10.43 26.16 10.08 29.24 10.08 32.46C10.08 36.31 10.535 40.23 11.445 44.22C12.355 48.14 13.65 51.71 15.33 54.93C17.01 58.08 19.005 60.67 21.315 62.7C23.695 64.73 26.285 65.745 29.085 65.745C31.115 65.745 33.075 65.185 34.965 64.065C36.855 62.875 38.5 61.16 39.9 58.92C41.37 56.68 42.525 53.915 43.365 50.625C44.275 47.335 44.73 43.52 44.73 39.18ZM58.9263 6.42H59.8713C60.4313 6.42 61.0263 6.315 61.6563 6.105C62.2863 5.89499 62.9863 5.65 63.7563 5.37C64.9463 4.95 66.3813 4.53 68.0613 4.11C69.7413 3.62 71.8063 3.375 74.2563 3.375C77.0563 3.375 79.5413 3.795 81.7113 4.635C83.9513 5.40499 85.8063 6.49 87.2763 7.89C88.8163 9.22 89.9713 10.795 90.7413 12.615C91.5813 14.435 92.0013 16.325 92.0013 18.285C92.0013 21.015 91.1613 23.64 89.4813 26.16C87.8713 28.68 85.3513 30.71 81.9213 32.25C86.7513 33.65 90.3563 35.89 92.7363 38.97C95.1163 42.05 96.3063 45.55 96.3063 49.47C96.3063 52.41 95.7463 55.14 94.6263 57.66C93.5763 60.11 92.0013 62.28 89.9013 64.17C87.8713 65.99 85.4213 67.425 82.5513 68.475C79.6813 69.525 76.4613 70.05 72.8913 70.05C70.2313 70.05 68.0263 69.805 66.2763 69.315C64.5263 68.825 63.0563 68.37 61.8663 67.95C61.0963 67.67 60.3963 67.46 59.7663 67.32C59.1363 67.11 58.5063 67.005 57.8763 67.005H56.9313V58.92H57.9813C59.8013 61.44 62.0413 63.365 64.7013 64.695C67.4313 65.955 70.2313 66.585 73.1013 66.585C75.6213 66.585 77.8963 66.165 79.9263 65.325C81.9563 64.415 83.6713 63.225 85.0713 61.755C86.5413 60.285 87.6263 58.605 88.3263 56.715C89.0963 54.825 89.4813 52.865 89.4813 50.835C89.4813 48.735 89.0613 46.705 88.2213 44.745C87.3813 42.715 86.1913 40.93 84.6513 39.39C83.1113 37.85 81.2213 36.625 78.9813 35.715C76.8113 34.805 74.3263 34.35 71.5263 34.35H66.6963V30.885H72.0513C74.2213 30.885 76.1113 30.535 77.7213 29.835C79.4013 29.135 80.8013 28.19 81.9213 27C83.0413 25.81 83.8813 24.48 84.4413 23.01C85.0013 21.54 85.2813 20 85.2813 18.39C85.2813 16.92 85.0013 15.485 84.4413 14.085C83.9513 12.685 83.1813 11.46 82.1313 10.41C81.0813 9.29 79.7863 8.38 78.2463 7.67999C76.7763 6.98 75.0613 6.63 73.1013 6.63C70.7213 6.63 68.3413 7.295 65.9613 8.62499C63.5813 9.95499 61.5863 11.95 59.9763 14.61H58.9263V6.42Z" fill="#62A8DE"/>
<circle cx="90.5" cy="47.5" r="14" fill="#D9D9D9"/>
<circle cx="90.5" cy="47.5" r="14" fill="url(#paint0_linear_146_50)"/>
<circle cx="90.5" cy="47.5" r="14" fill="url(#paint1_radial_146_50)" fill-opacity="0.3"/>
<circle cx="90.5" cy="47.5" r="14" stroke="#FAFAFA" stroke-width="3"/>
<path d="M93.3332 45.5L88.7498 50.0833L86.6665 48" stroke="#6C623C" stroke-width="2" stroke-linecap="square" stroke-linejoin="round"/>
<defs>
<linearGradient id="paint0_linear_146_50" x1="96" y1="35" x2="75.9711" y2="44.0768" gradientUnits="userSpaceOnUse">
<stop stop-color="#FFF2AF"/>
<stop offset="1" stop-color="#EFD4A0"/>
</linearGradient>
<radialGradient id="paint1_radial_146_50" cx="0" cy="0" r="1" gradientUnits="userSpaceOnUse" gradientTransform="translate(91.2789 40.25) rotate(91.3177) scale(32.2585 13.4896)">
<stop stop-color="white"/>
<stop offset="1" stop-color="white" stop-opacity="0"/>
</radialGradient>
</defs>
</svg>
