<svg width="100" height="100" viewBox="0 0 100 100" fill="none" xmlns="http://www.w3.org/2000/svg">
<g filter="url(#filter0_i_149_136)">
<rect width="100" height="100" rx="10" fill="#62A8DE"/>
<rect width="100" height="100" rx="10" fill="url(#paint0_radial_149_136)" fill-opacity="0.2"/>
</g>
<rect x="0.5" y="0.5" width="99" height="99" rx="9.5" stroke="white" stroke-opacity="0.2"/>
<rect x="0.5" y="0.5" width="99" height="99" rx="9.5" stroke="url(#paint1_radial_149_136)" stroke-opacity="0.4"/>
<path d="M33.9282 42.8574H46.4282C49.387 42.8574 51.7854 40.4589 51.7854 37.5002C51.7854 34.5415 49.387 32.1431 46.4282 32.1431C43.4696 32.1431 41.0711 34.5415 41.0711 37.5002" stroke="white" stroke-width="3" stroke-linecap="round" stroke-linejoin="round"/>
<path d="M35.7144 57.1431H55.3572C58.316 57.1431 60.7144 59.5415 60.7144 62.5002C60.7144 65.459 58.316 67.8574 55.3572 67.8574C52.3985 67.8574 50.0001 65.459 50.0001 62.5002" stroke="white" stroke-width="3" stroke-linecap="round" stroke-linejoin="round"/>
<path d="M32.1426 50.0002H62.4997C65.4585 50.0002 67.8569 47.6018 67.8569 44.643C67.8569 41.6844 65.4585 39.2859 62.4997 39.2859C59.541 39.2859 57.1426 41.6844 57.1426 44.643" stroke="white" stroke-width="3" stroke-linecap="round" stroke-linejoin="round"/>
<defs>
<filter id="filter0_i_149_136" x="0" y="0" width="100" height="104" filterUnits="userSpaceOnUse" color-interpolation-filters="sRGB">
<feFlood flood-opacity="0" result="BackgroundImageFix"/>
<feBlend mode="normal" in="SourceGraphic" in2="BackgroundImageFix" result="shape"/>
<feColorMatrix in="SourceAlpha" type="matrix" values="0 0 0 0 0 0 0 0 0 0 0 0 0 0 0 0 0 0 127 0" result="hardAlpha"/>
<feOffset dy="4"/>
<feGaussianBlur stdDeviation="10.25"/>
<feComposite in2="hardAlpha" operator="arithmetic" k2="-1" k3="1"/>
<feColorMatrix type="matrix" values="0 0 0 0 0.635983 0 0 0 0 0.828507 0 0 0 0 0.977025 0 0 0 1 0"/>
<feBlend mode="normal" in2="shape" result="effect1_innerShadow_149_136"/>
</filter>
<radialGradient id="paint0_radial_149_136" cx="0" cy="0" r="1" gradientUnits="userSpaceOnUse" gradientTransform="translate(53.1157 21) rotate(91.3177) scale(129.034 53.9584)">
<stop stop-color="white"/>
<stop offset="1" stop-color="white" stop-opacity="0"/>
</radialGradient>
<radialGradient id="paint1_radial_149_136" cx="0" cy="0" r="1" gradientUnits="userSpaceOnUse" gradientTransform="translate(52.1452 7.57047e-06) rotate(90.4081) scale(69.5018 35.1867)">
<stop stop-color="white"/>
<stop offset="1" stop-color="white" stop-opacity="0"/>
</radialGradient>
</defs>
</svg>
