<svg width="100" height="100" viewBox="0 0 100 100" fill="none" xmlns="http://www.w3.org/2000/svg">
<g filter="url(#filter0_i_149_150)">
<rect width="100" height="100" rx="10" fill="#62A8DE"/>
<rect width="100" height="100" rx="10" fill="url(#paint0_radial_149_150)" fill-opacity="0.2"/>
</g>
<rect x="0.5" y="0.5" width="99" height="99" rx="9.5" stroke="white" stroke-opacity="0.2"/>
<rect x="0.5" y="0.5" width="99" height="99" rx="9.5" stroke="url(#paint1_radial_149_150)" stroke-opacity="0.4"/>
<path d="M65.0744 33.7675L40.9525 42.3808V55.7141L42.3773 56.2227L40.2306 60.516C39.9861 61.0041 39.8494 61.5391 39.8298 62.0846C39.8102 62.6302 39.9081 63.1736 40.117 63.678C40.3258 64.1824 40.6407 64.6359 41.0402 65.008C41.4397 65.38 41.9145 65.6617 42.4325 65.8341L50.2115 68.4265C51.0817 68.7102 52.0247 68.6736 52.8702 68.3233C53.7158 67.973 54.4084 67.332 54.823 66.516L57.3049 61.5522L65.0744 64.3275C65.3617 64.43 65.6694 64.462 65.9717 64.4208C66.2739 64.3796 66.5618 64.2664 66.8112 64.0907C67.0606 63.9151 67.2642 63.6821 67.4048 63.4114C67.5454 63.1406 67.6189 62.8401 67.6192 62.5351V35.5599C67.6189 35.2548 67.5454 34.9543 67.4048 34.6836C67.2642 34.4129 67.0606 34.1799 66.8112 34.0042C66.5618 33.8286 66.2739 33.7154 65.9717 33.6742C65.6694 33.633 65.3617 33.665 65.0744 33.7675ZM51.4154 64.8132L43.6382 62.2208L45.9906 57.5141L53.6896 60.2646L51.4154 64.8132ZM33.3334 55.7141H37.143V42.3808H33.3334C31.2325 42.3808 29.5239 44.0894 29.5239 46.1903V51.9046C29.5239 54.0056 31.2325 55.7141 33.3334 55.7141Z" fill="white"/>
<defs>
<filter id="filter0_i_149_150" x="0" y="0" width="100" height="104" filterUnits="userSpaceOnUse" color-interpolation-filters="sRGB">
<feFlood flood-opacity="0" result="BackgroundImageFix"/>
<feBlend mode="normal" in="SourceGraphic" in2="BackgroundImageFix" result="shape"/>
<feColorMatrix in="SourceAlpha" type="matrix" values="0 0 0 0 0 0 0 0 0 0 0 0 0 0 0 0 0 0 127 0" result="hardAlpha"/>
<feOffset dy="4"/>
<feGaussianBlur stdDeviation="10.25"/>
<feComposite in2="hardAlpha" operator="arithmetic" k2="-1" k3="1"/>
<feColorMatrix type="matrix" values="0 0 0 0 0.635983 0 0 0 0 0.828507 0 0 0 0 0.977025 0 0 0 1 0"/>
<feBlend mode="normal" in2="shape" result="effect1_innerShadow_149_150"/>
</filter>
<radialGradient id="paint0_radial_149_150" cx="0" cy="0" r="1" gradientUnits="userSpaceOnUse" gradientTransform="translate(53.1157 21) rotate(91.3177) scale(129.034 53.9584)">
<stop stop-color="white"/>
<stop offset="1" stop-color="white" stop-opacity="0"/>
</radialGradient>
<radialGradient id="paint1_radial_149_150" cx="0" cy="0" r="1" gradientUnits="userSpaceOnUse" gradientTransform="translate(52.1452 7.57047e-06) rotate(90.4081) scale(69.5018 35.1867)">
<stop stop-color="white"/>
<stop offset="1" stop-color="white" stop-opacity="0"/>
</radialGradient>
</defs>
</svg>
