<svg width="100" height="100" viewBox="0 0 100 100" fill="none" xmlns="http://www.w3.org/2000/svg">
<g filter="url(#filter0_i_149_161)">
<rect width="100" height="100" rx="10" fill="#62A8DE"/>
<rect width="100" height="100" rx="10" fill="url(#paint0_radial_149_161)" fill-opacity="0.2"/>
</g>
<rect x="0.5" y="0.5" width="99" height="99" rx="9.5" stroke="white" stroke-opacity="0.2"/>
<rect x="0.5" y="0.5" width="99" height="99" rx="9.5" stroke="url(#paint1_radial_149_161)" stroke-opacity="0.4"/>
<path d="M45.1787 49.9999C45.1787 47.3372 47.3374 45.1785 50.0001 45.1785C52.6629 45.1785 54.8216 47.3372 54.8216 49.9999C54.8216 52.6626 52.6629 54.8213 50.0001 54.8213C47.3374 54.8213 45.1787 52.6626 45.1787 49.9999Z" fill="white"/>
<path fill-rule="evenodd" clip-rule="evenodd" d="M28.5713 50C28.5713 53.513 29.4819 54.6961 31.3032 57.0622C34.9398 61.7866 41.0387 67.1429 49.9999 67.1429C58.9611 67.1429 65.0599 61.7866 68.6965 57.0622C70.5177 54.6961 71.4284 53.513 71.4284 50C71.4284 46.487 70.5177 45.304 68.6965 42.9379C65.0599 38.2134 58.9611 32.8572 49.9999 32.8572C41.0387 32.8572 34.9398 38.2134 31.3032 42.9379C29.4819 45.304 28.5713 46.487 28.5713 50ZM49.9999 41.9643C45.5619 41.9643 41.9641 45.562 41.9641 50C41.9641 54.4381 45.5619 58.0357 49.9999 58.0357C54.4379 58.0357 58.0356 54.4381 58.0356 50C58.0356 45.562 54.4379 41.9643 49.9999 41.9643Z" fill="white"/>
<defs>
<filter id="filter0_i_149_161" x="0" y="0" width="100" height="104" filterUnits="userSpaceOnUse" color-interpolation-filters="sRGB">
<feFlood flood-opacity="0" result="BackgroundImageFix"/>
<feBlend mode="normal" in="SourceGraphic" in2="BackgroundImageFix" result="shape"/>
<feColorMatrix in="SourceAlpha" type="matrix" values="0 0 0 0 0 0 0 0 0 0 0 0 0 0 0 0 0 0 127 0" result="hardAlpha"/>
<feOffset dy="4"/>
<feGaussianBlur stdDeviation="10.25"/>
<feComposite in2="hardAlpha" operator="arithmetic" k2="-1" k3="1"/>
<feColorMatrix type="matrix" values="0 0 0 0 0.635983 0 0 0 0 0.828507 0 0 0 0 0.977025 0 0 0 1 0"/>
<feBlend mode="normal" in2="shape" result="effect1_innerShadow_149_161"/>
</filter>
<radialGradient id="paint0_radial_149_161" cx="0" cy="0" r="1" gradientUnits="userSpaceOnUse" gradientTransform="translate(53.1157 21) rotate(91.3177) scale(129.034 53.9584)">
<stop stop-color="white"/>
<stop offset="1" stop-color="white" stop-opacity="0"/>
</radialGradient>
<radialGradient id="paint1_radial_149_161" cx="0" cy="0" r="1" gradientUnits="userSpaceOnUse" gradientTransform="translate(52.1452 7.57047e-06) rotate(90.4081) scale(69.5018 35.1867)">
<stop stop-color="white"/>
<stop offset="1" stop-color="white" stop-opacity="0"/>
</radialGradient>
</defs>
</svg>
