<svg width="30" height="30" viewBox="0 0 30 30" fill="none" xmlns="http://www.w3.org/2000/svg">
<path d="M28.1765 7.00825C27.0515 5.36469 25.6476 3.96137 24.0046 2.83637C23.5775 2.54399 22.9939 2.65298 22.7015 3.08012C22.4091 3.50727 22.5181 4.09087 22.9452 4.38325C24.396 5.37641 25.6359 6.61626 26.629 8.06704C26.8107 8.33247 27.1042 8.47485 27.4036 8.47485C27.5859 8.47485 27.7704 8.42153 27.9321 8.31079C28.3599 8.01841 28.4695 7.4354 28.1765 7.00825Z" fill="white"/>
<path d="M7.05407 4.38302C7.48122 4.09063 7.59079 3.50704 7.29782 3.07989C7.00485 2.65274 6.42185 2.54317 5.9947 2.83614C4.35173 3.96114 2.94782 5.36446 1.82282 7.00802C1.53044 7.43517 1.63943 8.01876 2.06657 8.31114C2.22829 8.42188 2.41286 8.4752 2.59509 8.4752C2.89392 8.4752 3.18806 8.33224 3.3697 8.06739C4.36403 6.61602 5.60329 5.37618 7.05407 4.38302Z" fill="white"/>
<path d="M23.7088 22.8095C25.1742 20.9351 26.0473 18.5761 26.0473 16.0126C26.0473 9.91123 21.1014 4.96533 15 4.96533C8.89866 4.96533 3.95276 9.91123 3.95276 16.0126C3.95276 18.5761 4.82581 20.9356 6.29124 22.8095L3.67151 25.4292C3.3053 25.7954 3.3053 26.389 3.67151 26.7552C3.85432 26.938 4.09456 27.03 4.3342 27.03C4.57385 27.03 4.81409 26.9386 4.9969 26.7552L7.56682 24.1853C9.52913 25.9718 12.1371 27.0599 14.9994 27.0599C17.8617 27.0599 20.4698 25.9712 22.4321 24.1853L25.3008 27.054C25.4836 27.2368 25.7239 27.3288 25.9635 27.3288C26.2031 27.3288 26.4434 27.2374 26.6262 27.054C26.9924 26.6878 26.9924 26.0942 26.6262 25.728L23.7088 22.8095ZM18.4436 19.4562C18.2608 19.639 18.0205 19.731 17.7809 19.731C17.5412 19.731 17.301 19.6396 17.1182 19.4562L14.3373 16.6753C14.1615 16.4995 14.0625 16.261 14.0625 16.0126V11.2132C14.0625 10.6952 14.4821 10.2757 15 10.2757C15.518 10.2757 15.9375 10.6952 15.9375 11.2132V15.6241L18.4436 18.1302C18.8098 18.4964 18.8098 19.0899 18.4436 19.4562Z" fill="white"/>
</svg>
