<svg width="28" height="28" viewBox="0 0 28 28" fill="none" xmlns="http://www.w3.org/2000/svg">
<g filter="url(#filter0_i_149_207)">
<circle cx="14" cy="14" r="14" fill="#62A8DE"/>
<circle cx="14" cy="14" r="14" fill="url(#paint0_radial_149_207)" fill-opacity="0.2"/>
</g>
<circle cx="14" cy="14" r="13.5" stroke="white" stroke-opacity="0.2"/>
<circle cx="14" cy="14" r="13.5" stroke="url(#paint1_radial_149_207)" stroke-opacity="0.4"/>
<path d="M9.13867 13.775C9.13867 16.1389 11.0926 17.3986 12.5228 18.5261C13.0276 18.924 13.5137 19.2986 13.9998 19.2986C14.4859 19.2986 14.972 18.924 15.4767 18.5261C16.907 17.3986 18.8609 16.1389 18.8609 13.775C18.8609 11.4111 16.1872 9.73461 13.9998 12.0073C11.8124 9.73461 9.13867 11.4111 9.13867 13.775Z" fill="white"/>
<defs>
<filter id="filter0_i_149_207" x="0" y="0" width="28" height="32" filterUnits="userSpaceOnUse" color-interpolation-filters="sRGB">
<feFlood flood-opacity="0" result="BackgroundImageFix"/>
<feBlend mode="normal" in="SourceGraphic" in2="BackgroundImageFix" result="shape"/>
<feColorMatrix in="SourceAlpha" type="matrix" values="0 0 0 0 0 0 0 0 0 0 0 0 0 0 0 0 0 0 127 0" result="hardAlpha"/>
<feOffset dy="4"/>
<feGaussianBlur stdDeviation="10.25"/>
<feComposite in2="hardAlpha" operator="arithmetic" k2="-1" k3="1"/>
<feColorMatrix type="matrix" values="0 0 0 0 0.635983 0 0 0 0 0.828507 0 0 0 0 0.977025 0 0 0 1 0"/>
<feBlend mode="normal" in2="shape" result="effect1_innerShadow_149_207"/>
</filter>
<radialGradient id="paint0_radial_149_207" cx="0" cy="0" r="1" gradientUnits="userSpaceOnUse" gradientTransform="translate(14.8724 5.88) rotate(91.3177) scale(36.1296 15.1083)">
<stop stop-color="white"/>
<stop offset="1" stop-color="white" stop-opacity="0"/>
</radialGradient>
<radialGradient id="paint1_radial_149_207" cx="0" cy="0" r="1" gradientUnits="userSpaceOnUse" gradientTransform="translate(14.6007 2.11973e-06) rotate(90.4081) scale(19.4605 9.85229)">
<stop stop-color="white"/>
<stop offset="1" stop-color="white" stop-opacity="0"/>
</radialGradient>
</defs>
</svg>
