<svg width="68" height="68" viewBox="0 0 68 68" fill="none" xmlns="http://www.w3.org/2000/svg">
<g filter="url(#filter0_i_14_48)">
<rect width="68" height="68" rx="10" fill="#62A8DE"/>
<rect width="68" height="68" rx="10" fill="url(#paint0_radial_14_48)" fill-opacity="0.2"/>
</g>
<rect x="0.5" y="0.5" width="67" height="67" rx="9.5" stroke="white" stroke-opacity="0.2"/>
<rect x="0.5" y="0.5" width="67" height="67" rx="9.5" stroke="url(#paint1_radial_14_48)" stroke-opacity="0.4"/>
<path d="M32.2727 25L33.5455 26.5833C30.6364 29.1049 28.8182 32.037 28.0909 35.3796C29.303 35.3796 30.2121 35.7315 30.8182 36.4352C31.4242 37.1389 31.7273 38.1358 31.7273 39.4259C31.7273 40.7161 31.2121 41.8009 30.1818 42.6806C29.2121 43.5602 28.0909 44 26.8182 44C25.6061 44 24.6667 43.6775 24 43.0324C23.3333 42.3287 23 41.4198 23 40.3056C23 35.0864 26.0909 29.9846 32.2727 25ZM43.7273 25L45 26.5833C41.9091 29.2809 40.0909 32.213 39.5455 35.3796C40.697 35.3796 41.5758 35.7608 42.1818 36.5231C42.8485 37.2269 43.1818 38.2238 43.1818 39.5139C43.1818 40.7454 42.6667 41.8009 41.6364 42.6806C40.6667 43.5602 39.5455 44 38.2727 44C37.0606 44 36.1212 43.6775 35.4545 43.0324C34.7879 42.3287 34.4545 41.4198 34.4545 40.3056C34.4545 34.6759 37.5455 29.5741 43.7273 25Z" fill="white"/>
<defs>
<filter id="filter0_i_14_48" x="0" y="0" width="68" height="72" filterUnits="userSpaceOnUse" color-interpolation-filters="sRGB">
<feFlood flood-opacity="0" result="BackgroundImageFix"/>
<feBlend mode="normal" in="SourceGraphic" in2="BackgroundImageFix" result="shape"/>
<feColorMatrix in="SourceAlpha" type="matrix" values="0 0 0 0 0 0 0 0 0 0 0 0 0 0 0 0 0 0 127 0" result="hardAlpha"/>
<feOffset dy="4"/>
<feGaussianBlur stdDeviation="10.25"/>
<feComposite in2="hardAlpha" operator="arithmetic" k2="-1" k3="1"/>
<feColorMatrix type="matrix" values="0 0 0 0 0.635983 0 0 0 0 0.828507 0 0 0 0 0.977025 0 0 0 1 0"/>
<feBlend mode="normal" in2="shape" result="effect1_innerShadow_14_48"/>
</filter>
<radialGradient id="paint0_radial_14_48" cx="0" cy="0" r="1" gradientUnits="userSpaceOnUse" gradientTransform="translate(36.1187 14.28) rotate(91.3177) scale(87.7432 36.6917)">
<stop stop-color="white"/>
<stop offset="1" stop-color="white" stop-opacity="0"/>
</radialGradient>
<radialGradient id="paint1_radial_14_48" cx="0" cy="0" r="1" gradientUnits="userSpaceOnUse" gradientTransform="translate(35.4587 5.14792e-06) rotate(90.4081) scale(47.2612 23.927)">
<stop stop-color="white"/>
<stop offset="1" stop-color="white" stop-opacity="0"/>
</radialGradient>
</defs>
</svg>
