<svg width="111" height="134" viewBox="0 0 111 134" fill="none" xmlns="http://www.w3.org/2000/svg">
<g filter="url(#filter0_i_151_457)">
<path d="M102.889 30.5902V74.7672C102.889 80.8607 101.176 86.8437 97.6813 91.8356C93.7742 97.4174 88.3132 104.744 83.615 109.303C76.1989 116.499 62.224 122.773 57.2548 124.869C56.0953 125.358 54.7942 125.358 53.6346 124.869C48.6655 122.773 34.6906 116.499 27.2744 109.303C22.5763 104.744 17.1153 97.4174 13.2082 91.8356C9.71395 86.8437 8 80.8607 8 74.7672V30.5902C8 28.111 9.81404 26.0031 12.2563 25.5762C17.82 24.6038 27.5229 22.6936 33.205 20.3438C39.7771 17.6261 48.0846 12.1461 52.4503 9.12282C54.2488 7.87732 56.6407 7.87732 58.4392 9.12282C62.8049 12.1461 71.1124 17.6261 77.6844 20.3438C83.3666 22.6936 93.0694 24.6038 98.6332 25.5762C101.075 26.0031 102.889 28.111 102.889 30.5902Z" fill="url(#paint0_linear_151_457)"/>
<path d="M102.889 30.5902V74.7672C102.889 80.8607 101.176 86.8437 97.6813 91.8356C93.7742 97.4174 88.3132 104.744 83.615 109.303C76.1989 116.499 62.224 122.773 57.2548 124.869C56.0953 125.358 54.7942 125.358 53.6346 124.869C48.6655 122.773 34.6906 116.499 27.2744 109.303C22.5763 104.744 17.1153 97.4174 13.2082 91.8356C9.71395 86.8437 8 80.8607 8 74.7672V30.5902C8 28.111 9.81404 26.0031 12.2563 25.5762C17.82 24.6038 27.5229 22.6936 33.205 20.3438C39.7771 17.6261 48.0846 12.1461 52.4503 9.12282C54.2488 7.87732 56.6407 7.87732 58.4392 9.12282C62.8049 12.1461 71.1124 17.6261 77.6844 20.3438C83.3666 22.6936 93.0694 24.6038 98.6332 25.5762C101.075 26.0031 102.889 28.111 102.889 30.5902Z" fill="url(#paint1_radial_151_457)" fill-opacity="0.3"/>
</g>
<path d="M50.173 5.83436L52.4287 9.09163L50.173 5.83436C45.7951 8.86606 37.806 14.1127 31.6764 16.6474C26.4655 18.8023 17.1958 20.6522 11.5676 21.6359C7.25899 22.389 4 26.1191 4 30.5902V74.7672C4 81.6035 5.92361 88.404 9.93122 94.1294C13.8416 99.7159 19.4911 107.324 24.4888 112.173C28.5965 116.159 34.3314 119.735 39.4676 122.516C44.6641 125.33 49.5282 127.478 52.0803 128.554C54.2337 129.462 56.6558 129.462 58.8091 128.554C61.3612 127.478 66.2254 125.33 71.4219 122.516C76.558 119.735 82.2929 116.159 86.4006 112.173C91.3984 107.324 97.0479 99.7159 100.958 94.1294C104.966 88.404 106.889 81.6035 106.889 74.7672V30.5902C106.889 26.1191 103.63 22.389 99.3219 21.6359C93.6937 20.6522 84.424 18.8023 79.213 16.6474C73.0835 14.1127 65.0943 8.86606 60.7165 5.83436C57.548 3.64014 53.3415 3.64014 50.173 5.83436Z" stroke="white" stroke-width="8"/>
<path d="M73.2364 54.4448L50.8114 76.7399L40.6182 66.6058" stroke="#6C623C" stroke-width="6" stroke-linecap="square" stroke-linejoin="round"/>
<defs>
<filter id="filter0_i_151_457" x="0" y="0.188721" width="110.89" height="137.047" filterUnits="userSpaceOnUse" color-interpolation-filters="sRGB">
<feFlood flood-opacity="0" result="BackgroundImageFix"/>
<feBlend mode="normal" in="SourceGraphic" in2="BackgroundImageFix" result="shape"/>
<feColorMatrix in="SourceAlpha" type="matrix" values="0 0 0 0 0 0 0 0 0 0 0 0 0 0 0 0 0 0 127 0" result="hardAlpha"/>
<feOffset dy="4"/>
<feGaussianBlur stdDeviation="10.25"/>
<feComposite in2="hardAlpha" operator="arithmetic" k2="-1" k3="1"/>
<feColorMatrix type="matrix" values="0 0 0 0 1 0 0 0 0 0.856714 0 0 0 0 0.754167 0 0 0 0.3 0"/>
<feBlend mode="normal" in2="shape" result="effect1_innerShadow_151_457"/>
</filter>
<linearGradient id="paint0_linear_151_457" x1="76.3204" y1="7.00003" x2="-4.66844" y2="36.3622" gradientUnits="userSpaceOnUse">
<stop stop-color="#FFF2AF"/>
<stop offset="1" stop-color="#EFD4A0"/>
</linearGradient>
<radialGradient id="paint1_radial_151_457" cx="0" cy="0" r="1" gradientUnits="userSpaceOnUse" gradientTransform="translate(58.4012 31.9085) rotate(91.0543) scale(153.035 51.2057)">
<stop stop-color="white"/>
<stop offset="1" stop-color="white" stop-opacity="0"/>
</radialGradient>
</defs>
</svg>
